<svg width="48" height="48" viewBox="0 0 48 48" fill="none" xmlns="http://www.w3.org/2000/svg">
<path d="M25.5 12C25.5 10.6193 26.6193 9.5 28 9.5H30C31.3807 9.5 32.5 10.6193 32.5 12V16C32.5 17.3807 31.3807 18.5 30 18.5H28C26.6193 18.5 25.5 17.3807 25.5 16V12Z" stroke="#FF498B" stroke-width="3"/>
<path d="M13.5 12C13.5 10.6193 14.6193 9.5 16 9.5H18C19.3807 9.5 20.5 10.6193 20.5 12V16C20.5 17.3807 19.3807 18.5 18 18.5H16C14.6193 18.5 13.5 17.3807 13.5 16V12Z" stroke="#FF498B" stroke-width="3"/>
<path d="M9.5 9C9.5 5.41015 12.4101 2.5 16 2.5H30C33.5899 2.5 36.5 5.41015 36.5 9V18.5H9.5V9Z" stroke="#152C5B" stroke-width="3"/>
<mask id="path-4-inside-1_63_1370" fill="white">
<path d="M0 25C0 20.5817 3.58172 17 8 17H38C42.4183 17 46 20.5817 46 25V39C46 40.1046 45.1046 41 44 41H2C0.89543 41 0 40.1046 0 39V25Z"/>
</mask>
<path d="M0 25C0 20.5817 3.58172 17 8 17H38C42.4183 17 46 20.5817 46 25V39C46 40.1046 45.1046 41 44 41H2C0.89543 41 0 40.1046 0 39V25Z" stroke="#152C5B" stroke-width="6" mask="url(#path-4-inside-1_63_1370)"/>
</svg>
