<svg width="48" height="48" viewBox="0 0 48 48" fill="none" xmlns="http://www.w3.org/2000/svg">
<path d="M4.68631 20.809C5.12334 20.0024 5.96701 19.5 6.88436 19.5H41.1342C42.0515 19.5 42.8952 20.0024 43.3322 20.809L45.4996 24.809C46.4023 26.4747 45.1962 28.5 43.3016 28.5H4.71691C2.82233 28.5 1.61626 26.4747 2.51887 24.809L4.68631 20.809Z" stroke="#152C5B" stroke-width="3"/>
<path d="M14.6852 14V18.5833M32.7052 14V18.5833" stroke="#152C5B" stroke-width="2"/>
<path d="M8 30C8 28.8954 8.89543 28 10 28H10.36C11.4646 28 12.36 28.8954 12.36 30V42.3333C12.36 43.4379 11.4646 44.3333 10.36 44.3333H10C8.89543 44.3333 8 43.4379 8 42.3333V30Z" stroke="#152C5B" stroke-width="2"/>
<path d="M37.16 30.1667C37.16 29.0621 38.0554 28.1667 39.16 28.1667H39.52C40.6246 28.1667 41.52 29.0621 41.52 30.1667V42.5C41.52 43.6046 40.6246 44.5 39.52 44.5H39.16C38.0554 44.5 37.16 43.6046 37.16 42.5V30.1667Z" stroke="#152C5B" stroke-width="2"/>
<path d="M29.4074 7C29.4074 6.44772 29.8551 6 30.4074 6H34.7674C35.3197 6 35.7674 6.44772 35.7674 7V11.9867C35.7674 13.7429 34.3437 15.1667 32.5874 15.1667C30.8311 15.1667 29.4074 13.7429 29.4074 11.9867V7Z" fill="#FF498B"/>
<path d="M11.7407 7C11.7407 6.44772 12.1885 6 12.7407 6H17.1007C17.653 6 18.1007 6.44772 18.1007 7V11.9867C18.1007 13.7429 16.677 15.1667 14.9207 15.1667C13.1645 15.1667 11.7407 13.7429 11.7407 11.9867V7Z" fill="#FF498B"/>
</svg>
