<svg width="48" height="48" viewBox="0 0 48 48" fill="none" xmlns="http://www.w3.org/2000/svg">
<path d="M12 36C12 35.4477 12.4477 35 13 35H19C19.5523 35 20 35.4477 20 36V47H12V36Z" stroke="#FF498B" stroke-width="2"/>
<path d="M28.5 30H34.5C35.0523 30 35.5 30.4477 35.5 31V37C35.5 37.5523 35.0523 38 34.5 38H28.5C27.9477 38 27.5 37.5523 27.5 37V31C27.5 30.4477 27.9477 30 28.5 30Z" stroke="#FF498B" stroke-width="2"/>
<mask id="path-3-inside-1_67_1588" fill="white">
<path d="M4 24H42V46C42 47.1046 41.1046 48 40 48H6C4.89543 48 4 47.1046 4 46V24Z"/>
</mask>
<path d="M4 24H42V46C42 47.1046 41.1046 48 40 48H6C4.89543 48 4 47.1046 4 46V24Z" stroke="#152C5B" stroke-width="6" mask="url(#path-3-inside-1_67_1588)"/>
<circle cx="15" cy="40" r="1" fill="#152C5B"/>
<path d="M21.967 4.05C22.5459 3.50012 23.4541 3.50012 24.033 4.05L43.3652 22.4124C44.3477 23.3456 43.6873 25 42.3322 25H3.66777C2.31274 25 1.65226 23.3456 2.63475 22.4124L21.967 4.05Z" stroke="#152C5B" stroke-width="3"/>
</svg>
