<svg width="27" height="27" viewBox="0 0 27 27" fill="none" xmlns="http://www.w3.org/2000/svg">
<rect width="27" height="27" fill="#152C5B"/>
<rect x="3" y="3" width="21" height="21" rx="3" stroke="white" stroke-width="2"/>
<path d="M3 10C20.2055 10 24.1655 10 23.9948 10" stroke="white" stroke-width="2" stroke-linecap="square"/>
<path fill-rule="evenodd" clip-rule="evenodd" d="M9 1C9 0.447715 8.55228 0 8 0C7.44772 0 7 0.447715 7 1V1V1.00001V1.00003V1.00005V1.00009V1.00013V1.00019V1.00024V1.00032V1.00039V1.00049V1.00057V1.00069V1.00078V1.00093V1.00103V1.0012V1.00131V1.00151V1.00162V1.00186V1.00197V1.00224V1.00235V1.00266V1.00276V1.00312V1.0032V1.00361V1.00368V1.00415V1.00419V1.00471V1.00473V1.00531V1.00532V1.00591V1.00596V1.00655V1.00665V1.00722V1.00736V1.00792V1.00812V1.00865V1.00892V1.00941V1.00975V1.0102V1.01063V1.01103V1.01154V1.01188V1.01249V1.01277V1.01348V1.01368V1.01451V1.01462V1.01558V1.0156V1.0166V1.01668V1.01763V1.01783V1.01869V1.01902V1.01979V1.02025V1.02091V1.02152V1.02205V1.02283V1.02323V1.02418V1.02444V1.0251V1.02557V1.02567V1.02693V1.027V1.02822V1.02847V1.02954V1.02999V1.03088V1.03154V1.03226V1.03314V1.03366V1.03478V1.03508V1.03646V1.03654V1.03802V1.03818V1.03952V1.03995V1.04106V1.04176V1.04262V1.04361V1.0442V1.0455V1.04581V1.04744V1.04745V1.04911V1.04942V1.05011V1.0508V1.05144V1.05251V1.05351V1.05425V1.05562V1.05602V1.05777V1.0578V1.05962V1.05997V1.06145V1.06221V1.06331V1.0645V1.0652V1.06683V1.06711V1.06904V1.06921V1.071V1.07163V1.07298V1.07409V1.07498V1.07502V1.0766V1.077V1.07905V1.07916V1.08112V1.08176V1.08322V1.08441V1.08533V1.0871V1.08747V1.08963V1.08984V1.09182V1.09263V1.09402V1.09546V1.09625V1.09834V1.09849V1.09983V1.10076V1.10126V1.10305V1.10424V1.10536V1.10726V1.10769V1.11004V1.11032V1.11241V1.11344V1.1148V1.1166V1.11721V1.11965V1.11981V1.1221V1.12306V1.12454V1.12457V1.12637V1.12706V1.12957V1.12972V1.13209V1.13312V1.13464V1.13657V1.13721V1.13979V1.14007V1.14239V1.14362V1.14501V1.14722V1.14765V1.14916V1.15031V1.15086V1.15298V1.15456V1.15567V1.1583V1.15838V1.16111V1.1621V1.16385V1.16594V1.16661V1.16939V1.16984V1.17218V1.17368V1.17378V1.17499V1.17778V1.17782V1.18066V1.18183V1.18351V1.18592V1.18639V1.18928V1.19007V1.19218V1.19427V1.1951V1.19803V1.1981V1.19852V1.20098V1.20282V1.20394V1.20692V1.20717V1.20991V1.21158V1.21292V1.21594V1.21603V1.21897V1.22054V1.22202V1.22242V1.22508V1.2251V1.22815V1.22972V1.23124V1.23434V1.23438V1.23745V1.2391V1.24058V1.24372V1.24387V1.24665V1.2487V1.25358V1.25851V1.26349V1.26853V1.27078V1.27362V1.27877V1.28397V1.28923V1.29454V1.29482V1.2999V1.30532V1.31079V1.31632V1.31876V1.32191V1.32755V1.33325V1.339V1.3426V1.34481V1.35067V1.3566V1.36257V1.36635V1.36861V1.3747V1.38085V1.38706V1.39V1.39332V1.39964V1.40602V1.41246V1.41355V1.41895V1.42551V1.43212V1.43701V1.43879V1.44552V1.45231V1.45916V1.46038V1.46606V1.47303V1.48006V1.48365V1.48714V1.49429V1.50149V1.50682V1.50876V1.51609V1.52347V1.5299V1.53092V1.53843V1.546V1.55289V1.55363V1.56132V1.56908V1.57578V1.5769V1.58477V1.59272V1.59857V1.60072V1.60878V1.61691V1.62128V1.6251V1.63336V1.64167V1.64389V1.65005V1.6585V1.6664V1.66701V1.67558V1.68421V1.68882V1.69291V1.70168V1.7105V1.71115V1.7194V1.72836V1.73339V1.73738V1.74647V1.75553V1.75562V1.76484V1.77412V1.77758V1.78347V1.79289V1.79953V1.80237V1.81192V1.8214V1.82154V1.83122V1.84097V1.84317V1.85079V1.86067V1.86485V1.87062V1.88064V1.88643V1.89072V1.90088V1.90793V1.9111V1.92139V1.92933V1.93175V1.94217V1.95064V1.95267V1.96323V1.97187V1.97387V1.98457V1.99299V1.99534V2.00619V2.01403V2.0171V2.02808V2.03498V2.03913V2.05025V2.05584V2.06144V2.0727V2.0766V2.08404V2.09544V2.09728V2.10692V2.11787V2.11846V2.13008V2.13836V2.14177V2.15353V2.15877V2.16536V2.17727V2.17908V2.18925V2.19931V2.2013V2.21342V2.21945V2.22561V2.23788V2.2395V2.25022V2.25945V2.26264V2.27512V2.27932V2.28768V2.29911V2.30032V2.31303V2.3188V2.32581V2.3384V2.33867V2.3516V2.35792V2.3646V2.37735V2.37769V2.39084V2.39669V2.40407V2.41594V2.41738V2.43076V2.43511V2.44422V2.45419V2.45775V2.47136V2.47318V2.48504V2.49208V2.4988V2.5109V2.51264V2.52656V2.52963V2.54055V2.54827V2.55461V2.56683V2.56876V2.58298V2.5853V2.59728V2.60369V2.61166V2.62199V2.62611V2.6402V2.64065V2.65526V2.65833V2.66995V2.67637V2.68471V2.69433V2.69956V2.7122V2.71449V2.72949V2.72999V2.74457V2.74769V2.75973V2.76531V2.77498V2.78285V2.7903V2.8003V2.8057V2.81766V2.82118V2.83495V2.83674V2.85215V2.85238V2.86811V2.86926V2.88391V2.88629V2.89979V2.90324V2.91576V2.92011V2.9318V2.93689V2.94793V2.95359V2.96414V2.97021V2.98043V2.98675V2.9968V3.0032V3.01325V3.01957V3.02979V3.03586V3.04641V3.05207V3.06311V3.0682V3.07989V3.08424V3.09676V3.10021V3.11371V3.11609V3.13074V3.13189V3.14762V3.14785V3.16326V3.16505V3.17882V3.18234V3.1943V3.1997V3.2097V3.21715V3.22502V3.23469V3.24027V3.25231V3.25543V3.27001V3.27051V3.28551V3.2878V3.30044V3.30567V3.31529V3.32363V3.33005V3.34167V3.34474V3.35935V3.3598V3.37389V3.37801V3.38834V3.39631V3.40272V3.4147V3.41702V3.43124V3.43317V3.44539V3.45173V3.45945V3.47037V3.47344V3.48736V3.4891V3.5012V3.50792V3.51496V3.52682V3.52864V3.54225V3.54581V3.55578V3.56489V3.56924V3.58262V3.58406V3.59593V3.60331V3.60916V3.62231V3.62265V3.6354V3.64208V3.6484V3.66133V3.6616V3.67419V3.6812V3.68697V3.69968V3.70089V3.71232V3.72068V3.72488V3.73736V3.74055V3.74978V3.7605V3.76212V3.77439V3.78055V3.78658V3.7987V3.80069V3.81075V3.82092V3.82273V3.83464V3.84123V3.84647V3.85823V3.86164V3.86992V3.88154V3.88213V3.89308V3.90272V3.90456V3.91596V3.9234V3.9273V3.93856V3.94416V3.94975V3.96087V3.96502V3.97192V3.9829V3.98597V3.99381V4.00466V4.00701V4.01543V4.02613V4.02813V4.03677V4.04733V4.04936V4.05783V4.06825V4.07067V4.07861V4.0889V4.09207V4.09912V4.10928V4.11357V4.11936V4.12938V4.13515V4.13933V4.14921V4.15683V4.15903V4.16878V4.17846V4.1786V4.18808V4.19763V4.20047V4.20711V4.21653V4.22242V4.22588V4.23516V4.24438V4.24447V4.25353V4.26262V4.26661V4.27164V4.2806V4.28885V4.2895V4.29832V4.30709V4.31118V4.31579V4.32442V4.33299V4.3336V4.3415V4.34995V4.35611V4.35833V4.36664V4.3749V4.37872V4.38309V4.39122V4.39928V4.40143V4.40728V4.41523V4.4231V4.42422V4.43092V4.43867V4.44637V4.44711V4.454V4.46157V4.46908V4.4701V4.47653V4.48391V4.49124V4.49318V4.49851V4.50571V4.51286V4.51635V4.51995V4.52697V4.53394V4.53962V4.54084V4.54769V4.55448V4.56121V4.56299V4.56788V4.57449V4.58105V4.58645V4.58754V4.59398V4.60036V4.60668V4.61V4.61294V4.61915V4.6253V4.63139V4.63365V4.63743V4.6434V4.64933V4.65519V4.6574V4.661V4.66675V4.67245V4.67809V4.68124V4.68368V4.68921V4.69468V4.7001V4.70518V4.70546V4.71077V4.71603V4.72123V4.72638V4.72922V4.73147V4.73651V4.74149V4.74642V4.7513V4.75335V4.75613V4.75628V4.75942V4.7609V4.76255V4.76562V4.76566V4.76876V4.77028V4.77185V4.7749V4.77492V4.77758V4.77798V4.77946V4.78103V4.78397V4.78406V4.78708V4.78842V4.79009V4.79283V4.79308V4.79606V4.79718V4.79902V4.80148V4.8019V4.80197V4.8049V4.80573V4.80782V4.80993V4.81072V4.81361V4.81408V4.81649V4.81817V4.81934V4.82218V4.82222V4.82501V4.82622V4.82632V4.82782V4.83016V4.83061V4.83339V4.83406V4.83615V4.8379V4.83889V4.84162V4.84169V4.84433V4.84544V4.84702V4.84914V4.84969V4.85084V4.85235V4.85278V4.85499V4.85638V4.85761V4.85993V4.86021V4.86279V4.86343V4.86536V4.86688V4.86791V4.87028V4.87043V4.87294V4.87363V4.87543V4.87546V4.87694V4.8779V4.88019V4.88035V4.88279V4.8834V4.8852V4.88656V4.88759V4.88968V4.88996V4.89231V4.89274V4.89464V4.89576V4.89695V4.89874V4.89924V4.90017V4.90151V4.90166V4.90376V4.90454V4.90598V4.90737V4.90818V4.91016V4.91037V4.91253V4.9129V4.91467V4.91559V4.91678V4.91824V4.91888V4.92084V4.92095V4.923V4.9234V4.92498V4.92502V4.92591V4.92702V4.92837V4.929V4.93079V4.93096V4.93289V4.93317V4.9348V4.9355V4.93669V4.93779V4.93855V4.94003V4.94038V4.9422V4.94223V4.94398V4.94438V4.94575V4.94649V4.94749V4.94856V4.9492V4.94989V4.95058V4.95089V4.95255V4.95256V4.95419V4.9545V4.9558V4.95639V4.95738V4.95824V4.95894V4.96005V4.96048V4.96182V4.96198V4.96346V4.96354V4.96492V4.96522V4.96634V4.96686V4.96774V4.96846V4.96912V4.97001V4.97046V4.97153V4.97178V4.973V4.97307V4.97433V4.97443V4.9749V4.97556V4.97582V4.97677V4.97717V4.97795V4.97848V4.97909V4.97975V4.98022V4.98098V4.98131V4.98217V4.98237V4.98332V4.9834V4.9844V4.98442V4.98538V4.98549V4.98632V4.98652V4.98724V4.98751V4.98812V4.98846V4.98897V4.98937V4.9898V4.99025V4.99059V4.99108V4.99135V4.99188V4.99208V4.99264V4.99278V4.99335V4.99345V4.99404V4.99409V4.99468V4.99469V4.99527V4.99529V4.99581V4.99585V4.99632V4.99639V4.9968V4.99688V4.99724V4.99734V4.99765V4.99776V4.99803V4.99814V4.99838V4.99849V4.99869V4.9988V4.99897V4.99907V4.99922V4.99931V4.99943V4.99951V4.99961V4.99968V4.99976V4.99981V4.99987V4.99991V4.99995V4.99997V4.99999V5C7 5.55228 7.44772 6 8 6C8.55228 6 9 5.55228 9 5V4.99999V4.99997V4.99995V4.99991V4.99987V4.99981V4.99976V4.99968V4.99961V4.99951V4.99943V4.99931V4.99922V4.99907V4.99897V4.9988V4.99869V4.99849V4.99838V4.99814V4.99803V4.99776V4.99765V4.99734V4.99724V4.99688V4.9968V4.99639V4.99632V4.99585V4.99581V4.99529V4.99527V4.99469V4.99468V4.99409V4.99404V4.99345V4.99335V4.99278V4.99264V4.99208V4.99188V4.99135V4.99108V4.99059V4.99025V4.9898V4.98937V4.98897V4.98846V4.98812V4.98751V4.98724V4.98652V4.98632V4.98549V4.98538V4.98442V4.9844V4.9834V4.98332V4.98237V4.98217V4.98131V4.98098V4.98022V4.97975V4.97909V4.97848V4.97795V4.97717V4.97677V4.97582V4.97556V4.9749V4.97443V4.97433V4.97307V4.973V4.97178V4.97153V4.97046V4.97001V4.96912V4.96846V4.96774V4.96686V4.96634V4.96522V4.96492V4.96354V4.96346V4.96198V4.96182V4.96048V4.96005V4.95894V4.95824V4.95738V4.95639V4.9558V4.9545V4.95419V4.95256V4.95255V4.95089V4.95058V4.94989V4.9492V4.94856V4.94749V4.94649V4.94575V4.94438V4.94398V4.94223V4.9422V4.94038V4.94003V4.93855V4.93779V4.93669V4.9355V4.9348V4.93317V4.93289V4.93096V4.93079V4.929V4.92837V4.92702V4.92591V4.92502V4.92498V4.9234V4.923V4.92095V4.92084V4.91888V4.91824V4.91678V4.91559V4.91467V4.9129V4.91253V4.91037V4.91016V4.90818V4.90737V4.90598V4.90454V4.90376V4.90166V4.90151V4.90017V4.89924V4.89874V4.89695V4.89576V4.89464V4.89274V4.89231V4.88996V4.88968V4.88759V4.88656V4.8852V4.8834V4.88279V4.88035V4.88019V4.8779V4.87694V4.87546V4.87543V4.87363V4.87294V4.87043V4.87028V4.86791V4.86688V4.86536V4.86343V4.86279V4.86021V4.85993V4.85761V4.85638V4.85499V4.85278V4.85235V4.85084V4.84969V4.84914V4.84702V4.84544V4.84433V4.84169V4.84162V4.83889V4.8379V4.83615V4.83406V4.83339V4.83061V4.83016V4.82782V4.82632V4.82622V4.82501V4.82222V4.82218V4.81934V4.81817V4.81649V4.81408V4.81361V4.81072V4.80993V4.80782V4.80573V4.8049V4.80197V4.8019V4.80148V4.79902V4.79718V4.79606V4.79308V4.79283V4.79009V4.78842V4.78708V4.78406V4.78397V4.78103V4.77946V4.77798V4.77758V4.77492V4.7749V4.77185V4.77028V4.76876V4.76566V4.76562V4.76255V4.7609V4.75942V4.75628V4.75613V4.75335V4.7513V4.74642V4.74149V4.73651V4.73147V4.72922V4.72638V4.72123V4.71603V4.71077V4.70546V4.70518V4.7001V4.69468V4.68921V4.68368V4.68124V4.67809V4.67245V4.66675V4.661V4.6574V4.65519V4.64933V4.6434V4.63743V4.63365V4.63139V4.6253V4.61915V4.61294V4.61V4.60668V4.60036V4.59398V4.58754V4.58645V4.58105V4.57449V4.56788V4.56299V4.56121V4.55448V4.54769V4.54084V4.53962V4.53394V4.52697V4.51995V4.51635V4.51286V4.50571V4.49851V4.49318V4.49124V4.48391V4.47653V4.4701V4.46908V4.46157V4.454V4.44711V4.44637V4.43867V4.43092V4.42422V4.4231V4.41523V4.40728V4.40143V4.39928V4.39122V4.38309V4.37872V4.3749V4.36664V4.35833V4.35611V4.34995V4.3415V4.3336V4.33299V4.32442V4.31579V4.31118V4.30709V4.29832V4.2895V4.28885V4.2806V4.27164V4.26661V4.26262V4.25353V4.24447V4.24438V4.23516V4.22588V4.22242V4.21653V4.20711V4.20047V4.19763V4.18808V4.1786V4.17846V4.16878V4.15903V4.15683V4.14921V4.13933V4.13515V4.12938V4.11936V4.11357V4.10928V4.09912V4.09207V4.0889V4.07861V4.07067V4.06825V4.05783V4.04936V4.04733V4.03677V4.02813V4.02613V4.01543V4.00701V4.00466V3.99381V3.98597V3.9829V3.97192V3.96502V3.96087V3.94975V3.94416V3.93856V3.9273V3.9234V3.91596V3.90456V3.90272V3.89308V3.88213V3.88154V3.86992V3.86164V3.85823V3.84647V3.84123V3.83464V3.82273V3.82092V3.81075V3.80069V3.7987V3.78658V3.78055V3.77439V3.76212V3.7605V3.74978V3.74055V3.73736V3.72488V3.72068V3.71232V3.70089V3.69968V3.68697V3.6812V3.67419V3.6616V3.66133V3.6484V3.64208V3.6354V3.62265V3.62231V3.60916V3.60331V3.59593V3.58406V3.58262V3.56924V3.56489V3.55578V3.54581V3.54225V3.52864V3.52682V3.51496V3.50792V3.5012V3.4891V3.48736V3.47344V3.47037V3.45945V3.45173V3.44539V3.43317V3.43124V3.41702V3.4147V3.40272V3.39631V3.38834V3.37801V3.37389V3.3598V3.35935V3.34474V3.34167V3.33005V3.32363V3.31529V3.30567V3.30044V3.2878V3.28551V3.27051V3.27001V3.25543V3.25231V3.24027V3.23469V3.22502V3.21715V3.2097V3.1997V3.1943V3.18234V3.17882V3.16505V3.16326V3.14785V3.14762V3.13189V3.13074V3.11609V3.11371V3.10021V3.09676V3.08424V3.07989V3.0682V3.06311V3.05207V3.04641V3.03586V3.02979V3.01957V3.01325V3.0032V2.9968V2.98675V2.98043V2.97021V2.96414V2.95359V2.94793V2.93689V2.9318V2.92011V2.91576V2.90324V2.89979V2.88629V2.88391V2.86926V2.86811V2.85238V2.85215V2.83674V2.83495V2.82118V2.81766V2.8057V2.8003V2.7903V2.78285V2.77498V2.76531V2.75973V2.74769V2.74457V2.72999V2.72949V2.71449V2.7122V2.69956V2.69433V2.68471V2.67637V2.66995V2.65833V2.65526V2.64065V2.6402V2.62611V2.62199V2.61166V2.60369V2.59728V2.5853V2.58298V2.56876V2.56683V2.55461V2.54827V2.54055V2.52963V2.52656V2.51264V2.5109V2.4988V2.49208V2.48504V2.47318V2.47136V2.45775V2.45419V2.44422V2.43511V2.43076V2.41738V2.41594V2.40407V2.39669V2.39084V2.37769V2.37735V2.3646V2.35792V2.3516V2.33867V2.3384V2.32581V2.3188V2.31303V2.30032V2.29911V2.28768V2.27932V2.27512V2.26264V2.25945V2.25022V2.2395V2.23788V2.22561V2.21945V2.21342V2.2013V2.19931V2.18925V2.17908V2.17727V2.16536V2.15877V2.15353V2.14177V2.13836V2.13008V2.11846V2.11787V2.10692V2.09728V2.09544V2.08404V2.0766V2.0727V2.06144V2.05584V2.05025V2.03913V2.03498V2.02808V2.0171V2.01403V2.00619V1.99534V1.99299V1.98457V1.97387V1.97187V1.96323V1.95267V1.95064V1.94217V1.93175V1.92933V1.92139V1.9111V1.90793V1.90088V1.89072V1.88643V1.88064V1.87062V1.86485V1.86067V1.85079V1.84317V1.84097V1.83122V1.82154V1.8214V1.81192V1.80237V1.79953V1.79289V1.78347V1.77758V1.77412V1.76484V1.75562V1.75553V1.74647V1.73738V1.73339V1.72836V1.7194V1.71115V1.7105V1.70168V1.69291V1.68882V1.68421V1.67558V1.66701V1.6664V1.6585V1.65005V1.64389V1.64167V1.63336V1.6251V1.62128V1.61691V1.60878V1.60072V1.59857V1.59272V1.58477V1.5769V1.57578V1.56908V1.56132V1.55363V1.55289V1.546V1.53843V1.53092V1.5299V1.52347V1.51609V1.50876V1.50682V1.50149V1.49429V1.48714V1.48365V1.48006V1.47303V1.46606V1.46038V1.45916V1.45231V1.44552V1.43879V1.43701V1.43212V1.42551V1.41895V1.41355V1.41246V1.40602V1.39964V1.39332V1.39V1.38706V1.38085V1.3747V1.36861V1.36635V1.36257V1.3566V1.35067V1.34481V1.3426V1.339V1.33325V1.32755V1.32191V1.31876V1.31632V1.31079V1.30532V1.2999V1.29482V1.29454V1.28923V1.28397V1.27877V1.27362V1.27078V1.26853V1.26349V1.25851V1.25358V1.2487V1.24665V1.24387V1.24372V1.24058V1.2391V1.23745V1.23438V1.23434V1.23124V1.22972V1.22815V1.2251V1.22508V1.22242V1.22202V1.22054V1.21897V1.21603V1.21594V1.21292V1.21158V1.20991V1.20717V1.20692V1.20394V1.20282V1.20098V1.19852V1.1981V1.19803V1.1951V1.19427V1.19218V1.19007V1.18928V1.18639V1.18592V1.18351V1.18183V1.18066V1.17782V1.17778V1.17499V1.17378V1.17368V1.17218V1.16984V1.16939V1.16661V1.16594V1.16385V1.1621V1.16111V1.15838V1.1583V1.15567V1.15456V1.15298V1.15086V1.15031V1.14916V1.14765V1.14722V1.14501V1.14362V1.14239V1.14007V1.13979V1.13721V1.13657V1.13464V1.13312V1.13209V1.12972V1.12957V1.12706V1.12637V1.12457V1.12454V1.12306V1.1221V1.11981V1.11965V1.11721V1.1166V1.1148V1.11344V1.11241V1.11032V1.11004V1.10769V1.10726V1.10536V1.10424V1.10305V1.10126V1.10076V1.09983V1.09849V1.09834V1.09625V1.09546V1.09402V1.09263V1.09182V1.08984V1.08963V1.08747V1.0871V1.08533V1.08441V1.08322V1.08176V1.08112V1.07916V1.07905V1.077V1.0766V1.07502V1.07498V1.07409V1.07298V1.07163V1.071V1.06921V1.06904V1.06711V1.06683V1.0652V1.0645V1.06331V1.06221V1.06145V1.05997V1.05962V1.0578V1.05777V1.05602V1.05562V1.05425V1.05351V1.05251V1.05144V1.0508V1.05011V1.04942V1.04911V1.04745V1.04744V1.04581V1.0455V1.0442V1.04361V1.04262V1.04176V1.04106V1.03995V1.03952V1.03818V1.03802V1.03654V1.03646V1.03508V1.03478V1.03366V1.03314V1.03226V1.03154V1.03088V1.02999V1.02954V1.02847V1.02822V1.027V1.02693V1.02567V1.02557V1.0251V1.02444V1.02418V1.02323V1.02283V1.02205V1.02152V1.02091V1.02025V1.01979V1.01902V1.01869V1.01783V1.01763V1.01668V1.0166V1.0156V1.01558V1.01462V1.01451V1.01368V1.01348V1.01277V1.01249V1.01188V1.01154V1.01103V1.01063V1.0102V1.00975V1.00941V1.00892V1.00865V1.00812V1.00792V1.00736V1.00722V1.00665V1.00655V1.00596V1.00591V1.00532V1.00531V1.00473V1.00471V1.00419V1.00415V1.00368V1.00361V1.0032V1.00312V1.00276V1.00266V1.00235V1.00224V1.00197V1.00186V1.00162V1.00151V1.00131V1.0012V1.00103V1.00093V1.00078V1.00069V1.00057V1.00049V1.00039V1.00032V1.00024V1.00019V1.00013V1.00009V1.00005V1.00003V1.00001V1Z" fill="white"/>
<path fill-rule="evenodd" clip-rule="evenodd" d="M20 1C20 0.447715 19.5523 0 19 0C18.4477 0 18 0.447715 18 1V1V1.00001V1.00003V1.00005V1.00009V1.00013V1.00019V1.00024V1.00032V1.00039V1.00049V1.00057V1.00069V1.00078V1.00093V1.00103V1.0012V1.00131V1.00151V1.00162V1.00186V1.00197V1.00224V1.00235V1.00266V1.00276V1.00312V1.0032V1.00361V1.00368V1.00415V1.00419V1.00471V1.00473V1.00531V1.00532V1.00591V1.00596V1.00655V1.00665V1.00722V1.00736V1.00792V1.00812V1.00865V1.00892V1.00941V1.00975V1.0102V1.01063V1.01103V1.01154V1.01188V1.01249V1.01277V1.01348V1.01368V1.01451V1.01462V1.01558V1.0156V1.0166V1.01668V1.01763V1.01783V1.01869V1.01902V1.01979V1.02025V1.02091V1.02152V1.02205V1.02283V1.02323V1.02418V1.02444V1.0251V1.02557V1.02567V1.02693V1.027V1.02822V1.02847V1.02954V1.02999V1.03088V1.03154V1.03226V1.03314V1.03366V1.03478V1.03508V1.03646V1.03654V1.03802V1.03818V1.03952V1.03995V1.04106V1.04176V1.04262V1.04361V1.0442V1.0455V1.04581V1.04744V1.04745V1.04911V1.04942V1.05011V1.0508V1.05144V1.05251V1.05351V1.05425V1.05562V1.05602V1.05777V1.0578V1.05962V1.05997V1.06145V1.06221V1.06331V1.0645V1.0652V1.06683V1.06711V1.06904V1.06921V1.071V1.07163V1.07298V1.07409V1.07498V1.07502V1.0766V1.077V1.07905V1.07916V1.08112V1.08176V1.08322V1.08441V1.08533V1.0871V1.08747V1.08963V1.08984V1.09182V1.09263V1.09402V1.09546V1.09625V1.09834V1.09849V1.09983V1.10076V1.10126V1.10305V1.10424V1.10536V1.10726V1.10769V1.11004V1.11032V1.11241V1.11344V1.1148V1.1166V1.11721V1.11965V1.11981V1.1221V1.12306V1.12454V1.12457V1.12637V1.12706V1.12957V1.12972V1.13209V1.13312V1.13464V1.13657V1.13721V1.13979V1.14007V1.14239V1.14362V1.14501V1.14722V1.14765V1.14916V1.15031V1.15086V1.15298V1.15456V1.15567V1.1583V1.15838V1.16111V1.1621V1.16385V1.16594V1.16661V1.16939V1.16984V1.17218V1.17368V1.17378V1.17499V1.17778V1.17782V1.18066V1.18183V1.18351V1.18592V1.18639V1.18928V1.19007V1.19218V1.19427V1.1951V1.19803V1.1981V1.19852V1.20098V1.20282V1.20394V1.20692V1.20717V1.20991V1.21158V1.21292V1.21594V1.21603V1.21897V1.22054V1.22202V1.22242V1.22508V1.2251V1.22815V1.22972V1.23124V1.23434V1.23438V1.23745V1.2391V1.24058V1.24372V1.24387V1.24665V1.2487V1.25358V1.25851V1.26349V1.26853V1.27078V1.27362V1.27877V1.28397V1.28923V1.29454V1.29482V1.2999V1.30532V1.31079V1.31632V1.31876V1.32191V1.32755V1.33325V1.339V1.3426V1.34481V1.35067V1.3566V1.36257V1.36635V1.36861V1.3747V1.38085V1.38706V1.39V1.39332V1.39964V1.40602V1.41246V1.41355V1.41895V1.42551V1.43212V1.43701V1.43879V1.44552V1.45231V1.45916V1.46038V1.46606V1.47303V1.48006V1.48365V1.48714V1.49429V1.50149V1.50682V1.50876V1.51609V1.52347V1.5299V1.53092V1.53843V1.546V1.55289V1.55363V1.56132V1.56908V1.57578V1.5769V1.58477V1.59272V1.59857V1.60072V1.60878V1.61691V1.62128V1.6251V1.63336V1.64167V1.64389V1.65005V1.6585V1.6664V1.66701V1.67558V1.68421V1.68882V1.69291V1.70168V1.7105V1.71115V1.7194V1.72836V1.73339V1.73738V1.74647V1.75553V1.75562V1.76484V1.77412V1.77758V1.78347V1.79289V1.79953V1.80237V1.81192V1.8214V1.82154V1.83122V1.84097V1.84317V1.85079V1.86067V1.86485V1.87062V1.88064V1.88643V1.89072V1.90088V1.90793V1.9111V1.92139V1.92933V1.93175V1.94217V1.95064V1.95267V1.96323V1.97187V1.97387V1.98457V1.99299V1.99534V2.00619V2.01403V2.0171V2.02808V2.03498V2.03913V2.05025V2.05584V2.06144V2.0727V2.0766V2.08404V2.09544V2.09728V2.10692V2.11787V2.11846V2.13008V2.13836V2.14177V2.15353V2.15877V2.16536V2.17727V2.17908V2.18925V2.19931V2.2013V2.21342V2.21945V2.22561V2.23788V2.2395V2.25022V2.25945V2.26264V2.27512V2.27932V2.28768V2.29911V2.30032V2.31303V2.3188V2.32581V2.3384V2.33867V2.3516V2.35792V2.3646V2.37735V2.37769V2.39084V2.39669V2.40407V2.41594V2.41738V2.43076V2.43511V2.44422V2.45419V2.45775V2.47136V2.47318V2.48504V2.49208V2.4988V2.5109V2.51264V2.52656V2.52963V2.54055V2.54827V2.55461V2.56683V2.56876V2.58298V2.5853V2.59728V2.60369V2.61166V2.62199V2.62611V2.6402V2.64065V2.65526V2.65833V2.66995V2.67637V2.68471V2.69433V2.69956V2.7122V2.71449V2.72949V2.72999V2.74457V2.74769V2.75973V2.76531V2.77498V2.78285V2.7903V2.8003V2.8057V2.81766V2.82118V2.83495V2.83674V2.85215V2.85238V2.86811V2.86926V2.88391V2.88629V2.89979V2.90324V2.91576V2.92011V2.9318V2.93689V2.94793V2.95359V2.96414V2.97021V2.98043V2.98675V2.9968V3.0032V3.01325V3.01957V3.02979V3.03586V3.04641V3.05207V3.06311V3.0682V3.07989V3.08424V3.09676V3.10021V3.11371V3.11609V3.13074V3.13189V3.14762V3.14785V3.16326V3.16505V3.17882V3.18234V3.1943V3.1997V3.2097V3.21715V3.22502V3.23469V3.24027V3.25231V3.25543V3.27001V3.27051V3.28551V3.2878V3.30044V3.30567V3.31529V3.32363V3.33005V3.34167V3.34474V3.35935V3.3598V3.37389V3.37801V3.38834V3.39631V3.40272V3.4147V3.41702V3.43124V3.43317V3.44539V3.45173V3.45945V3.47037V3.47344V3.48736V3.4891V3.5012V3.50792V3.51496V3.52682V3.52864V3.54225V3.54581V3.55578V3.56489V3.56924V3.58262V3.58406V3.59593V3.60331V3.60916V3.62231V3.62265V3.6354V3.64208V3.6484V3.66133V3.6616V3.67419V3.6812V3.68697V3.69968V3.70089V3.71232V3.72068V3.72488V3.73736V3.74055V3.74978V3.7605V3.76212V3.77439V3.78055V3.78658V3.7987V3.80069V3.81075V3.82092V3.82273V3.83464V3.84123V3.84647V3.85823V3.86164V3.86992V3.88154V3.88213V3.89308V3.90272V3.90456V3.91596V3.9234V3.9273V3.93856V3.94416V3.94975V3.96087V3.96502V3.97192V3.9829V3.98597V3.99381V4.00466V4.00701V4.01543V4.02613V4.02813V4.03677V4.04733V4.04936V4.05783V4.06825V4.07067V4.07861V4.0889V4.09207V4.09912V4.10928V4.11357V4.11936V4.12938V4.13515V4.13933V4.14921V4.15683V4.15903V4.16878V4.17846V4.1786V4.18808V4.19763V4.20047V4.20711V4.21653V4.22242V4.22588V4.23516V4.24438V4.24447V4.25353V4.26262V4.26661V4.27164V4.2806V4.28885V4.2895V4.29832V4.30709V4.31118V4.31579V4.32442V4.33299V4.3336V4.3415V4.34995V4.35611V4.35833V4.36664V4.3749V4.37872V4.38309V4.39122V4.39928V4.40143V4.40728V4.41523V4.4231V4.42422V4.43092V4.43867V4.44637V4.44711V4.454V4.46157V4.46908V4.4701V4.47653V4.48391V4.49124V4.49318V4.49851V4.50571V4.51286V4.51635V4.51995V4.52697V4.53394V4.53962V4.54084V4.54769V4.55448V4.56121V4.56299V4.56788V4.57449V4.58105V4.58645V4.58754V4.59398V4.60036V4.60668V4.61V4.61294V4.61915V4.6253V4.63139V4.63365V4.63743V4.6434V4.64933V4.65519V4.6574V4.661V4.66675V4.67245V4.67809V4.68124V4.68368V4.68921V4.69468V4.7001V4.70518V4.70546V4.71077V4.71603V4.72123V4.72638V4.72922V4.73147V4.73651V4.74149V4.74642V4.7513V4.75335V4.75613V4.75628V4.75942V4.7609V4.76255V4.76562V4.76566V4.76876V4.77028V4.77185V4.7749V4.77492V4.77758V4.77798V4.77946V4.78103V4.78397V4.78406V4.78708V4.78842V4.79009V4.79283V4.79308V4.79606V4.79718V4.79902V4.80148V4.8019V4.80197V4.8049V4.80573V4.80782V4.80993V4.81072V4.81361V4.81408V4.81649V4.81817V4.81934V4.82218V4.82222V4.82501V4.82622V4.82632V4.82782V4.83016V4.83061V4.83339V4.83406V4.83615V4.8379V4.83889V4.84162V4.84169V4.84433V4.84544V4.84702V4.84914V4.84969V4.85084V4.85235V4.85278V4.85499V4.85638V4.85761V4.85993V4.86021V4.86279V4.86343V4.86536V4.86688V4.86791V4.87028V4.87043V4.87294V4.87363V4.87543V4.87546V4.87694V4.8779V4.88019V4.88035V4.88279V4.8834V4.8852V4.88656V4.88759V4.88968V4.88996V4.89231V4.89274V4.89464V4.89576V4.89695V4.89874V4.89924V4.90017V4.90151V4.90166V4.90376V4.90454V4.90598V4.90737V4.90818V4.91016V4.91037V4.91253V4.9129V4.91467V4.91559V4.91678V4.91824V4.91888V4.92084V4.92095V4.923V4.9234V4.92498V4.92502V4.92591V4.92702V4.92837V4.929V4.93079V4.93096V4.93289V4.93317V4.9348V4.9355V4.93669V4.93779V4.93855V4.94003V4.94038V4.9422V4.94223V4.94398V4.94438V4.94575V4.94649V4.94749V4.94856V4.9492V4.94989V4.95058V4.95089V4.95255V4.95256V4.95419V4.9545V4.9558V4.95639V4.95738V4.95824V4.95894V4.96005V4.96048V4.96182V4.96198V4.96346V4.96354V4.96492V4.96522V4.96634V4.96686V4.96774V4.96846V4.96912V4.97001V4.97046V4.97153V4.97178V4.973V4.97307V4.97433V4.97443V4.9749V4.97556V4.97582V4.97677V4.97717V4.97795V4.97848V4.97909V4.97975V4.98022V4.98098V4.98131V4.98217V4.98237V4.98332V4.9834V4.9844V4.98442V4.98538V4.98549V4.98632V4.98652V4.98724V4.98751V4.98812V4.98846V4.98897V4.98937V4.9898V4.99025V4.99059V4.99108V4.99135V4.99188V4.99208V4.99264V4.99278V4.99335V4.99345V4.99404V4.99409V4.99468V4.99469V4.99527V4.99529V4.99581V4.99585V4.99632V4.99639V4.9968V4.99688V4.99724V4.99734V4.99765V4.99776V4.99803V4.99814V4.99838V4.99849V4.99869V4.9988V4.99897V4.99907V4.99922V4.99931V4.99943V4.99951V4.99961V4.99968V4.99976V4.99981V4.99987V4.99991V4.99995V4.99997V4.99999V5C18 5.55228 18.4477 6 19 6C19.5523 6 20 5.55228 20 5V4.99999V4.99997V4.99995V4.99991V4.99987V4.99981V4.99976V4.99968V4.99961V4.99951V4.99943V4.99931V4.99922V4.99907V4.99897V4.9988V4.99869V4.99849V4.99838V4.99814V4.99803V4.99776V4.99765V4.99734V4.99724V4.99688V4.9968V4.99639V4.99632V4.99585V4.99581V4.99529V4.99527V4.99469V4.99468V4.99409V4.99404V4.99345V4.99335V4.99278V4.99264V4.99208V4.99188V4.99135V4.99108V4.99059V4.99025V4.9898V4.98937V4.98897V4.98846V4.98812V4.98751V4.98724V4.98652V4.98632V4.98549V4.98538V4.98442V4.9844V4.9834V4.98332V4.98237V4.98217V4.98131V4.98098V4.98022V4.97975V4.97909V4.97848V4.97795V4.97717V4.97677V4.97582V4.97556V4.9749V4.97443V4.97433V4.97307V4.973V4.97178V4.97153V4.97046V4.97001V4.96912V4.96846V4.96774V4.96686V4.96634V4.96522V4.96492V4.96354V4.96346V4.96198V4.96182V4.96048V4.96005V4.95894V4.95824V4.95738V4.95639V4.9558V4.9545V4.95419V4.95256V4.95255V4.95089V4.95058V4.94989V4.9492V4.94856V4.94749V4.94649V4.94575V4.94438V4.94398V4.94223V4.9422V4.94038V4.94003V4.93855V4.93779V4.93669V4.9355V4.9348V4.93317V4.93289V4.93096V4.93079V4.929V4.92837V4.92702V4.92591V4.92502V4.92498V4.9234V4.923V4.92095V4.92084V4.91888V4.91824V4.91678V4.91559V4.91467V4.9129V4.91253V4.91037V4.91016V4.90818V4.90737V4.90598V4.90454V4.90376V4.90166V4.90151V4.90017V4.89924V4.89874V4.89695V4.89576V4.89464V4.89274V4.89231V4.88996V4.88968V4.88759V4.88656V4.8852V4.8834V4.88279V4.88035V4.88019V4.8779V4.87694V4.87546V4.87543V4.87363V4.87294V4.87043V4.87028V4.86791V4.86688V4.86536V4.86343V4.86279V4.86021V4.85993V4.85761V4.85638V4.85499V4.85278V4.85235V4.85084V4.84969V4.84914V4.84702V4.84544V4.84433V4.84169V4.84162V4.83889V4.8379V4.83615V4.83406V4.83339V4.83061V4.83016V4.82782V4.82632V4.82622V4.82501V4.82222V4.82218V4.81934V4.81817V4.81649V4.81408V4.81361V4.81072V4.80993V4.80782V4.80573V4.8049V4.80197V4.8019V4.80148V4.79902V4.79718V4.79606V4.79308V4.79283V4.79009V4.78842V4.78708V4.78406V4.78397V4.78103V4.77946V4.77798V4.77758V4.77492V4.7749V4.77185V4.77028V4.76876V4.76566V4.76562V4.76255V4.7609V4.75942V4.75628V4.75613V4.75335V4.7513V4.74642V4.74149V4.73651V4.73147V4.72922V4.72638V4.72123V4.71603V4.71077V4.70546V4.70518V4.7001V4.69468V4.68921V4.68368V4.68124V4.67809V4.67245V4.66675V4.661V4.6574V4.65519V4.64933V4.6434V4.63743V4.63365V4.63139V4.6253V4.61915V4.61294V4.61V4.60668V4.60036V4.59398V4.58754V4.58645V4.58105V4.57449V4.56788V4.56299V4.56121V4.55448V4.54769V4.54084V4.53962V4.53394V4.52697V4.51995V4.51635V4.51286V4.50571V4.49851V4.49318V4.49124V4.48391V4.47653V4.4701V4.46908V4.46157V4.454V4.44711V4.44637V4.43867V4.43092V4.42422V4.4231V4.41523V4.40728V4.40143V4.39928V4.39122V4.38309V4.37872V4.3749V4.36664V4.35833V4.35611V4.34995V4.3415V4.3336V4.33299V4.32442V4.31579V4.31118V4.30709V4.29832V4.2895V4.28885V4.2806V4.27164V4.26661V4.26262V4.25353V4.24447V4.24438V4.23516V4.22588V4.22242V4.21653V4.20711V4.20047V4.19763V4.18808V4.1786V4.17846V4.16878V4.15903V4.15683V4.14921V4.13933V4.13515V4.12938V4.11936V4.11357V4.10928V4.09912V4.09207V4.0889V4.07861V4.07067V4.06825V4.05783V4.04936V4.04733V4.03677V4.02813V4.02613V4.01543V4.00701V4.00466V3.99381V3.98597V3.9829V3.97192V3.96502V3.96087V3.94975V3.94416V3.93856V3.9273V3.9234V3.91596V3.90456V3.90272V3.89308V3.88213V3.88154V3.86992V3.86164V3.85823V3.84647V3.84123V3.83464V3.82273V3.82092V3.81075V3.80069V3.7987V3.78658V3.78055V3.77439V3.76212V3.7605V3.74978V3.74055V3.73736V3.72488V3.72068V3.71232V3.70089V3.69968V3.68697V3.6812V3.67419V3.6616V3.66133V3.6484V3.64208V3.6354V3.62265V3.62231V3.60916V3.60331V3.59593V3.58406V3.58262V3.56924V3.56489V3.55578V3.54581V3.54225V3.52864V3.52682V3.51496V3.50792V3.5012V3.4891V3.48736V3.47344V3.47037V3.45945V3.45173V3.44539V3.43317V3.43124V3.41702V3.4147V3.40272V3.39631V3.38834V3.37801V3.37389V3.3598V3.35935V3.34474V3.34167V3.33005V3.32363V3.31529V3.30567V3.30044V3.2878V3.28551V3.27051V3.27001V3.25543V3.25231V3.24027V3.23469V3.22502V3.21715V3.2097V3.1997V3.1943V3.18234V3.17882V3.16505V3.16326V3.14785V3.14762V3.13189V3.13074V3.11609V3.11371V3.10021V3.09676V3.08424V3.07989V3.0682V3.06311V3.05207V3.04641V3.03586V3.02979V3.01957V3.01325V3.0032V2.9968V2.98675V2.98043V2.97021V2.96414V2.95359V2.94793V2.93689V2.9318V2.92011V2.91576V2.90324V2.89979V2.88629V2.88391V2.86926V2.86811V2.85238V2.85215V2.83674V2.83495V2.82118V2.81766V2.8057V2.8003V2.7903V2.78285V2.77498V2.76531V2.75973V2.74769V2.74457V2.72999V2.72949V2.71449V2.7122V2.69956V2.69433V2.68471V2.67637V2.66995V2.65833V2.65526V2.64065V2.6402V2.62611V2.62199V2.61166V2.60369V2.59728V2.5853V2.58298V2.56876V2.56683V2.55461V2.54827V2.54055V2.52963V2.52656V2.51264V2.5109V2.4988V2.49208V2.48504V2.47318V2.47136V2.45775V2.45419V2.44422V2.43511V2.43076V2.41738V2.41594V2.40407V2.39669V2.39084V2.37769V2.37735V2.3646V2.35792V2.3516V2.33867V2.3384V2.32581V2.3188V2.31303V2.30032V2.29911V2.28768V2.27932V2.27512V2.26264V2.25945V2.25022V2.2395V2.23788V2.22561V2.21945V2.21342V2.2013V2.19931V2.18925V2.17908V2.17727V2.16536V2.15877V2.15353V2.14177V2.13836V2.13008V2.11846V2.11787V2.10692V2.09728V2.09544V2.08404V2.0766V2.0727V2.06144V2.05584V2.05025V2.03913V2.03498V2.02808V2.0171V2.01403V2.00619V1.99534V1.99299V1.98457V1.97387V1.97187V1.96323V1.95267V1.95064V1.94217V1.93175V1.92933V1.92139V1.9111V1.90793V1.90088V1.89072V1.88643V1.88064V1.87062V1.86485V1.86067V1.85079V1.84317V1.84097V1.83122V1.82154V1.8214V1.81192V1.80237V1.79953V1.79289V1.78347V1.77758V1.77412V1.76484V1.75562V1.75553V1.74647V1.73738V1.73339V1.72836V1.7194V1.71115V1.7105V1.70168V1.69291V1.68882V1.68421V1.67558V1.66701V1.6664V1.6585V1.65005V1.64389V1.64167V1.63336V1.6251V1.62128V1.61691V1.60878V1.60072V1.59857V1.59272V1.58477V1.5769V1.57578V1.56908V1.56132V1.55363V1.55289V1.546V1.53843V1.53092V1.5299V1.52347V1.51609V1.50876V1.50682V1.50149V1.49429V1.48714V1.48365V1.48006V1.47303V1.46606V1.46038V1.45916V1.45231V1.44552V1.43879V1.43701V1.43212V1.42551V1.41895V1.41355V1.41246V1.40602V1.39964V1.39332V1.39V1.38706V1.38085V1.3747V1.36861V1.36635V1.36257V1.3566V1.35067V1.34481V1.3426V1.339V1.33325V1.32755V1.32191V1.31876V1.31632V1.31079V1.30532V1.2999V1.29482V1.29454V1.28923V1.28397V1.27877V1.27362V1.27078V1.26853V1.26349V1.25851V1.25358V1.2487V1.24665V1.24387V1.24372V1.24058V1.2391V1.23745V1.23438V1.23434V1.23124V1.22972V1.22815V1.2251V1.22508V1.22242V1.22202V1.22054V1.21897V1.21603V1.21594V1.21292V1.21158V1.20991V1.20717V1.20692V1.20394V1.20282V1.20098V1.19852V1.1981V1.19803V1.1951V1.19427V1.19218V1.19007V1.18928V1.18639V1.18592V1.18351V1.18183V1.18066V1.17782V1.17778V1.17499V1.17378V1.17368V1.17218V1.16984V1.16939V1.16661V1.16594V1.16385V1.1621V1.16111V1.15838V1.1583V1.15567V1.15456V1.15298V1.15086V1.15031V1.14916V1.14765V1.14722V1.14501V1.14362V1.14239V1.14007V1.13979V1.13721V1.13657V1.13464V1.13312V1.13209V1.12972V1.12957V1.12706V1.12637V1.12457V1.12454V1.12306V1.1221V1.11981V1.11965V1.11721V1.1166V1.1148V1.11344V1.11241V1.11032V1.11004V1.10769V1.10726V1.10536V1.10424V1.10305V1.10126V1.10076V1.09983V1.09849V1.09834V1.09625V1.09546V1.09402V1.09263V1.09182V1.08984V1.08963V1.08747V1.0871V1.08533V1.08441V1.08322V1.08176V1.08112V1.07916V1.07905V1.077V1.0766V1.07502V1.07498V1.07409V1.07298V1.07163V1.071V1.06921V1.06904V1.06711V1.06683V1.0652V1.0645V1.06331V1.06221V1.06145V1.05997V1.05962V1.0578V1.05777V1.05602V1.05562V1.05425V1.05351V1.05251V1.05144V1.0508V1.05011V1.04942V1.04911V1.04745V1.04744V1.04581V1.0455V1.0442V1.04361V1.04262V1.04176V1.04106V1.03995V1.03952V1.03818V1.03802V1.03654V1.03646V1.03508V1.03478V1.03366V1.03314V1.03226V1.03154V1.03088V1.02999V1.02954V1.02847V1.02822V1.027V1.02693V1.02567V1.02557V1.0251V1.02444V1.02418V1.02323V1.02283V1.02205V1.02152V1.02091V1.02025V1.01979V1.01902V1.01869V1.01783V1.01763V1.01668V1.0166V1.0156V1.01558V1.01462V1.01451V1.01368V1.01348V1.01277V1.01249V1.01188V1.01154V1.01103V1.01063V1.0102V1.00975V1.00941V1.00892V1.00865V1.00812V1.00792V1.00736V1.00722V1.00665V1.00655V1.00596V1.00591V1.00532V1.00531V1.00473V1.00471V1.00419V1.00415V1.00368V1.00361V1.0032V1.00312V1.00276V1.00266V1.00235V1.00224V1.00197V1.00186V1.00162V1.00151V1.00131V1.0012V1.00103V1.00093V1.00078V1.00069V1.00057V1.00049V1.00039V1.00032V1.00024V1.00019V1.00013V1.00009V1.00005V1.00003V1.00001V1Z" fill="white"/>
<rect x="7.5" y="14.5" width="4" height="4" rx="0.5" stroke="white"/>
<rect x="15.5" y="14.5" width="4" height="4" rx="0.5" stroke="white"/>
</svg>
