<svg width="48" height="48" viewBox="0 0 48 48" fill="none" xmlns="http://www.w3.org/2000/svg">
<g clip-path="url(#clip0_27_85)">
<rect width="48" height="48" fill="white"/>
<mask id="path-1-inside-1_27_85" fill="white">
<path fill-rule="evenodd" clip-rule="evenodd" d="M18.2454 8C17.3379 8 16.5442 8.61097 16.3119 9.48822L15.3824 13H7C3.13401 13 0 16.134 0 20V36C0 39.866 3.13401 43 7 43H41C44.866 43 48 39.866 48 36V20C48 16.134 44.866 13 41 13H31.6176L30.6881 9.48821C30.4558 8.61097 29.6621 8 28.7546 8H18.2454Z"/>
</mask>
<path d="M16.3119 9.48822L19.2121 10.2559V10.2559L16.3119 9.48822ZM15.3824 13V16H17.6916L18.2825 13.7677L15.3824 13ZM31.6176 13L28.7175 13.7677L29.3084 16H31.6176V13ZM30.6881 9.48821L33.5882 8.72054V8.72053L30.6881 9.48821ZM19.2121 10.2559C19.096 10.6945 18.6991 11 18.2454 11V5C15.9767 5 13.9924 6.52741 13.4118 8.72054L19.2121 10.2559ZM18.2825 13.7677L19.2121 10.2559L13.4118 8.72054L12.4822 12.2323L18.2825 13.7677ZM7 16H15.3824V10H7V16ZM3 20C3 17.7909 4.79086 16 7 16V10C1.47715 10 -3 14.4772 -3 20H3ZM3 36V20H-3V36H3ZM7 40C4.79086 40 3 38.2091 3 36H-3C-3 41.5228 1.47715 46 7 46V40ZM41 40H7V46H41V40ZM45 36C45 38.2091 43.2091 40 41 40V46C46.5228 46 51 41.5228 51 36H45ZM45 20V36H51V20H45ZM41 16C43.2091 16 45 17.7909 45 20H51C51 14.4772 46.5228 10 41 10V16ZM31.6176 16H41V10H31.6176V16ZM27.7879 10.2559L28.7175 13.7677L34.5178 12.2323L33.5882 8.72054L27.7879 10.2559ZM28.7546 11C28.3009 11 27.904 10.6945 27.7879 10.2559L33.5882 8.72053C33.0076 6.52741 31.0233 5 28.7546 5V11ZM18.2454 11H28.7546V5H18.2454V11Z" fill="#152C5B" mask="url(#path-1-inside-1_27_85)"/>
<circle cx="23.5" cy="27.5" r="7" stroke="#FF498B" stroke-width="3"/>
<path d="M41 19L34 19.0268" stroke="#152C5B" stroke-width="3" stroke-linecap="round"/>
</g>
<defs>
<clipPath id="clip0_27_85">
<rect width="48" height="48" fill="white"/>
</clipPath>
</defs>
</svg>
